<mxfile host="app.diagrams.net" agent="Mozilla/5.0 (Macintosh; Intel Mac OS X 10_15_7) AppleWebKit/537.36 (KHTML, like Gecko) Chrome/132.0.0.0 Safari/537.36" version="26.0.8">
  <diagram name="Page-1" id="9Fwdb6ov88U24b3C2Hm-">
    <mxGraphModel dx="1272" dy="816" grid="1" gridSize="10" guides="1" tooltips="1" connect="1" arrows="1" fold="1" page="1" pageScale="1" pageWidth="850" pageHeight="1100" math="0" shadow="0">
      <root>
        <mxCell id="0" />
        <mxCell id="1" parent="0" />
        <mxCell id="WDykwnfbS3jng25Hy8at-1" value="Buyer Browses Verified Land Listings" style="rounded=0;whiteSpace=wrap;html=1;fontFamily=Times New Roman;fontStyle=1;fontSize=14;" vertex="1" parent="1">
          <mxGeometry x="340" y="80" width="180" height="60" as="geometry" />
        </mxCell>
        <mxCell id="WDykwnfbS3jng25Hy8at-2" value="Buyer Sends Purchase Request to Seller" style="rounded=0;whiteSpace=wrap;html=1;fontFamily=Times New Roman;fontStyle=1;fontSize=14;" vertex="1" parent="1">
          <mxGeometry x="340" y="180" width="180" height="60" as="geometry" />
        </mxCell>
        <mxCell id="WDykwnfbS3jng25Hy8at-3" value="Request Rejected" style="rounded=0;whiteSpace=wrap;html=1;fontFamily=Times New Roman;fontStyle=1;fontSize=14;" vertex="1" parent="1">
          <mxGeometry x="480" y="320" width="120" height="60" as="geometry" />
        </mxCell>
        <mxCell id="WDykwnfbS3jng25Hy8at-4" value="Payment Process Initiated" style="rounded=0;whiteSpace=wrap;html=1;fontFamily=Times New Roman;fontStyle=1;fontSize=14;" vertex="1" parent="1">
          <mxGeometry x="240" y="320" width="120" height="60" as="geometry" />
        </mxCell>
        <mxCell id="WDykwnfbS3jng25Hy8at-5" value="Smart Contract Execution" style="rounded=0;whiteSpace=wrap;html=1;fontFamily=Times New Roman;fontStyle=1;fontSize=14;" vertex="1" parent="1">
          <mxGeometry x="200" y="440" width="200" height="60" as="geometry" />
        </mxCell>
        <mxCell id="WDykwnfbS3jng25Hy8at-7" value="Blockchain Record Updated" style="rounded=0;whiteSpace=wrap;html=1;fontFamily=Times New Roman;fontStyle=1;fontSize=14;" vertex="1" parent="1">
          <mxGeometry x="350" y="560" width="120" height="60" as="geometry" />
        </mxCell>
        <mxCell id="WDykwnfbS3jng25Hy8at-8" value="Ownership Transferred to Buyer" style="rounded=0;whiteSpace=wrap;html=1;fontFamily=Times New Roman;fontStyle=1;fontSize=14;" vertex="1" parent="1">
          <mxGeometry x="140" y="560" width="120" height="60" as="geometry" />
        </mxCell>
        <mxCell id="WDykwnfbS3jng25Hy8at-9" value="Transaction Flow&lt;div&gt;&lt;br&gt;&lt;/div&gt;" style="text;html=1;align=center;verticalAlign=middle;resizable=0;points=[];autosize=1;strokeColor=none;fillColor=none;fontFamily=Times New Roman;fontStyle=1;fontSize=18;" vertex="1" parent="1">
          <mxGeometry x="360" y="20" width="150" height="60" as="geometry" />
        </mxCell>
        <mxCell id="WDykwnfbS3jng25Hy8at-10" value="" style="endArrow=classic;html=1;rounded=0;entryX=0.5;entryY=0;entryDx=0;entryDy=0;fontFamily=Times New Roman;fontStyle=1;fontSize=14;" edge="1" parent="1" source="WDykwnfbS3jng25Hy8at-1" target="WDykwnfbS3jng25Hy8at-2">
          <mxGeometry width="50" height="50" relative="1" as="geometry">
            <mxPoint x="350" y="130" as="sourcePoint" />
            <mxPoint x="400" y="80" as="targetPoint" />
          </mxGeometry>
        </mxCell>
        <mxCell id="WDykwnfbS3jng25Hy8at-18" value="" style="curved=1;endArrow=classic;html=1;rounded=0;exitX=0.75;exitY=1;exitDx=0;exitDy=0;entryX=0.583;entryY=0;entryDx=0;entryDy=0;entryPerimeter=0;fontFamily=Times New Roman;fontStyle=1;fontSize=14;" edge="1" parent="1" source="WDykwnfbS3jng25Hy8at-2" target="WDykwnfbS3jng25Hy8at-3">
          <mxGeometry width="50" height="50" relative="1" as="geometry">
            <mxPoint x="460" y="350" as="sourcePoint" />
            <mxPoint x="510" y="300" as="targetPoint" />
            <Array as="points">
              <mxPoint x="560" y="280" />
            </Array>
          </mxGeometry>
        </mxCell>
        <mxCell id="WDykwnfbS3jng25Hy8at-21" value="Rejected by Seller" style="edgeLabel;html=1;align=center;verticalAlign=middle;resizable=0;points=[];fontFamily=Times New Roman;fontStyle=1;fontSize=14;" vertex="1" connectable="0" parent="WDykwnfbS3jng25Hy8at-18">
          <mxGeometry x="-0.1802" y="-1" relative="1" as="geometry">
            <mxPoint as="offset" />
          </mxGeometry>
        </mxCell>
        <mxCell id="WDykwnfbS3jng25Hy8at-19" value="" style="curved=1;endArrow=classic;html=1;rounded=0;exitX=0.25;exitY=1;exitDx=0;exitDy=0;entryX=0.308;entryY=-0.017;entryDx=0;entryDy=0;entryPerimeter=0;fontFamily=Times New Roman;fontStyle=1;fontSize=14;" edge="1" parent="1" source="WDykwnfbS3jng25Hy8at-2" target="WDykwnfbS3jng25Hy8at-4">
          <mxGeometry width="50" height="50" relative="1" as="geometry">
            <mxPoint x="150" y="260" as="sourcePoint" />
            <mxPoint x="265" y="320" as="targetPoint" />
            <Array as="points">
              <mxPoint x="265" y="280" />
            </Array>
          </mxGeometry>
        </mxCell>
        <mxCell id="WDykwnfbS3jng25Hy8at-20" value="Approved by Seller" style="edgeLabel;html=1;align=center;verticalAlign=middle;resizable=0;points=[];fontFamily=Times New Roman;fontStyle=1;fontSize=14;" vertex="1" connectable="0" parent="WDykwnfbS3jng25Hy8at-19">
          <mxGeometry x="0.0985" y="4" relative="1" as="geometry">
            <mxPoint as="offset" />
          </mxGeometry>
        </mxCell>
        <mxCell id="WDykwnfbS3jng25Hy8at-22" value="" style="endArrow=classic;html=1;rounded=0;entryX=0.5;entryY=0;entryDx=0;entryDy=0;exitX=0.5;exitY=1;exitDx=0;exitDy=0;fontFamily=Times New Roman;fontStyle=1;fontSize=14;" edge="1" parent="1" source="WDykwnfbS3jng25Hy8at-4" target="WDykwnfbS3jng25Hy8at-5">
          <mxGeometry width="50" height="50" relative="1" as="geometry">
            <mxPoint x="320" y="230" as="sourcePoint" />
            <mxPoint x="370" y="180" as="targetPoint" />
          </mxGeometry>
        </mxCell>
        <mxCell id="WDykwnfbS3jng25Hy8at-23" value="" style="endArrow=classic;html=1;rounded=0;entryX=0.5;entryY=0;entryDx=0;entryDy=0;exitX=0.25;exitY=1;exitDx=0;exitDy=0;fontFamily=Times New Roman;fontStyle=1;fontSize=14;" edge="1" parent="1" source="WDykwnfbS3jng25Hy8at-5" target="WDykwnfbS3jng25Hy8at-8">
          <mxGeometry width="50" height="50" relative="1" as="geometry">
            <mxPoint x="320" y="340" as="sourcePoint" />
            <mxPoint x="370" y="290" as="targetPoint" />
          </mxGeometry>
        </mxCell>
        <mxCell id="WDykwnfbS3jng25Hy8at-24" value="" style="endArrow=classic;html=1;rounded=0;entryX=0.5;entryY=0;entryDx=0;entryDy=0;exitX=0.75;exitY=1;exitDx=0;exitDy=0;fontFamily=Times New Roman;fontStyle=1;fontSize=14;" edge="1" parent="1" source="WDykwnfbS3jng25Hy8at-5" target="WDykwnfbS3jng25Hy8at-7">
          <mxGeometry width="50" height="50" relative="1" as="geometry">
            <mxPoint x="320" y="340" as="sourcePoint" />
            <mxPoint x="370" y="290" as="targetPoint" />
          </mxGeometry>
        </mxCell>
      </root>
    </mxGraphModel>
  </diagram>
</mxfile>
